<svg version="1.1" viewBox="0.0 0.0 200.0 200.0" fill="none" stroke="none" stroke-linecap="square" stroke-miterlimit="10" xmlns:xlink="http://www.w3.org/1999/xlink" xmlns="http://www.w3.org/2000/svg"><clipPath id="g361d7d53ffd_0_19.0"><path d="m0 0l200.0 0l0 200.0l-200.0 0l0 -200.0z" clip-rule="nonzero"/></clipPath><g clip-path="url(#g361d7d53ffd_0_19.0)"><path fill="#000000" fill-opacity="0.0" d="m0 0l200.0 0l0 200.0l-200.0 0z" fill-rule="evenodd"/><g filter="url(#shadowFilter-g361d7d53ffd_0_19.1)"><use xlink:href="#g361d7d53ffd_0_19.1" transform="matrix(1.0 0.0 0.0 1.0 0.0 2.0)"/></g><defs><filter id="shadowFilter-g361d7d53ffd_0_19.1" filterUnits="userSpaceOnUse"><feGaussianBlur in="SourceAlpha" stdDeviation="2.0" result="blur"/><feComponentTransfer in="blur" color-interpolation-filters="sRGB"><feFuncR type="linear" slope="0" intercept="0.0"/><feFuncG type="linear" slope="0" intercept="0.0"/><feFuncB type="linear" slope="0" intercept="0.0"/><feFuncA type="linear" slope="0.5" intercept="0"/></feComponentTransfer></filter></defs><g id="g361d7d53ffd_0_19.1"><path fill="#9fc5e8" d="m100.00394 197.31102l0 0c-53.74122 0 -97.30708 -43.565857 -97.30708 -97.30708l0 0c0 -53.74122 43.56587 -97.30708 97.30708 -97.30708l0 0c25.807442 0 50.557877 10.251966 68.8065 28.500586c18.248611 18.248621 28.50058 42.99906 28.50058 68.8065l0 0c0 25.807442 -10.251968 50.557877 -28.50058 68.8065l28.50058 0l0 28.50058z" fill-rule="evenodd"/></g></g></svg>