<svg version="1.1" viewBox="0.0 0.0 960.0 720.0" fill="none" stroke="none" stroke-linecap="square" stroke-miterlimit="10" xmlns:xlink="http://www.w3.org/1999/xlink" xmlns="http://www.w3.org/2000/svg"><clipPath id="g361e6a4d36a_0_8.0"><path d="m0 0l960.0 0l0 720.0l-960.0 0l0 -720.0z" clip-rule="nonzero"/></clipPath><g clip-path="url(#g361e6a4d36a_0_8.0)"><defs><radialGradient id="g361e6a4d36a_0_8.1" gradientUnits="userSpaceOnUse" gradientTransform="matrix(24.49489742783178 0.0 0.0 24.49489742783178 0.0 0.0)" spreadMethod="pad" cx="19.595917942265427" cy="14.696938456699069" fx="19.595917942265427" fy="14.696938456699069" r="24.494897842407227"><stop offset="0.0" stop-color="#e69138"/><stop offset="0.3" stop-color="#f9cb9c"/><stop offset="1.0" stop-color="#f4cccc"/></radialGradient></defs><path fill="url(#g361e6a4d36a_0_8.1)" d="m0 0l960.0 0l0 720.0l-960.0 0z" fill-rule="evenodd"/><path fill="#000000" fill-opacity="0.0" d="m330.804 412.97064l-119.68503 102.01575l-115.90552 -135.9685l119.68504 -102.01575z" fill-rule="evenodd"/><path fill="#ff0000" d="m259.5193 361.83823l11.86969 13.924316l-13.924805 11.869049l-11.86969 -13.924286l13.924805 -11.86908zm-32.98372 -38.693146l11.869675 13.924286l-13.92482 11.86908l-11.869675 -13.924286l13.92482 -11.86908zm-72.41249 24.848663l9.560669 -8.1492q17.348038 4.984314 31.81929 13.939972q14.481369 8.96759 24.313644 20.5018q12.214325 14.328583 18.201538 31.275452q5.198349 14.744904 6.6354065 29.677795l-9.513107 8.108673q-6.002121 -20.793945 -12.426285 -33.508514q-6.425934 -12.692566 -16.481201 -24.488403q-6.9231415 -8.121521 -15.701126 -15.360077q-8.767838 -7.226654 -17.94394 -12.668182q-6.0322113 -3.5839539 -18.46489 -9.329315z" fill-rule="nonzero"/><path fill="#000000" fill-opacity="0.0" d="m762.205 278.12085l102.5827 119.18112l-135.40155 116.566925l-102.5827 -119.18109z" fill-rule="evenodd"/><path fill="#ff0000" d="m711.4199 349.65475l13.866272 -11.937439l11.936096 13.867401l-13.866272 11.937439l-11.936096 -13.867401zm-38.53186 33.171997l13.866272 -11.937439l11.936096 13.867432l-13.866272 11.937439l-11.936096 -13.867432zm25.198608 72.29294l-8.195251 -9.521271q4.9000854 -17.372467 13.785278 -31.88739q8.897095 -14.525116 20.38324 -24.413513q14.26886 -12.284027 31.186035 -18.353577q14.719177 -5.269989 29.644531 -6.779541l8.15448 9.473907q-20.7641 6.103119 -33.44702 12.589081q-12.66095 6.48761 -24.407654 16.60028q-8.0876465 6.962677 -15.283386 15.775909q-7.183899 8.80304 -12.580811 18.005676q-3.5545654 6.0496826 -9.239441 18.510437z" fill-rule="nonzero"/><path fill="#000000" fill-opacity="0.0" d="m625.56213 151.96754l78.20471 -24.409454l33.984253 108.8504l-78.20471 24.40944z" fill-rule="evenodd"/><path fill="#ff9900" d="m656.8792 199.0599l-3.268921 -10.470322l10.470581 -3.268097l3.268921 10.470322l-10.470581 3.268097zm9.094421 29.128952l-3.2736206 -10.4852295l10.470581 -3.268097l3.2736206 10.4852295l-10.470581 3.268097zm45.813293 3.3457794l-7.2041016 2.2485657q-8.389221 -6.8424835 -14.268677 -15.188522q-5.8841553 -8.360947 -8.598938 -17.056381q-3.3621216 -10.768616 -2.6815186 -21.53865q0.5991211 -9.353302 3.3186035 -17.944382l7.159363 -2.234604q-1.5713501 12.897705 -1.0227661 21.418106q0.548584 8.520401 3.319275 17.394821q1.9091797 6.115143 5.045105 12.174774q3.1508179 6.054962 6.9264526 11.227463q2.499939 3.3936462 8.007202 9.49881z" fill-rule="nonzero"/><path fill="#000000" fill-opacity="0.0" d="m299.8237 261.35333l-77.574814 -26.362198l36.661423 -107.968506l77.5748 26.362213z" fill-rule="evenodd"/><path fill="#ff9900" d="m302.26154 204.84856l-3.5267334 10.386307l-10.385437 -3.5292816l3.5267334 -10.386307l10.385437 3.5292816zm9.811584 -28.895264l-3.5317688 10.401108l-10.385437 -3.5292816l3.5317688 -10.401108l10.385437 3.5292816zm-35.046143 -29.699493l7.145569 2.4282684q2.7475586 10.4721985 2.581543 20.680374q-0.17105103 10.222977 -3.099945 18.848648q-3.6272278 10.682236 -10.521759 18.983429q-5.9940796 7.204468 -13.252411 12.543594l-7.101166 -2.4131775q8.867676 -9.495468 13.443756 -16.703232q4.576111 -7.207779 7.5653076 -16.011002q2.059784 -6.0660706 3.0956726 -12.81015q1.0211182 -6.7490997 1.0175476 -13.15332q-0.020812988 -4.215225 -0.874115 -12.393433z" fill-rule="nonzero"/></g></svg>