<svg version="1.1" viewBox="0.0 0.0 960.0 720.0" fill="none" stroke="none" stroke-linecap="square" stroke-miterlimit="10" xmlns:xlink="http://www.w3.org/1999/xlink" xmlns="http://www.w3.org/2000/svg"><clipPath id="g361e6a4d36a_0_8.0"><path d="m0 0l960.0 0l0 720.0l-960.0 0l0 -720.0z" clip-rule="nonzero"/></clipPath><g clip-path="url(#g361e6a4d36a_0_8.0)"><defs><radialGradient id="g361e6a4d36a_0_8.1" gradientUnits="userSpaceOnUse" gradientTransform="matrix(24.49489742783178 0.0 0.0 24.49489742783178 0.0 0.0)" spreadMethod="pad" cx="19.595917942265427" cy="14.696938456699069" fx="19.595917942265427" fy="14.696938456699069" r="24.494897842407227"><stop offset="0.0" stop-color="#e69138"/><stop offset="0.3" stop-color="#f9cb9c"/><stop offset="1.0" stop-color="#f4cccc"/></radialGradient></defs><path fill="url(#g361e6a4d36a_0_8.1)" d="m0 0l960.0 0l0 720.0l-960.0 0z" fill-rule="evenodd"/><path fill="#000000" fill-opacity="0.0" d="m246.80399 594.6846l-119.685036 102.01575l-115.90551 -135.9685l119.68504 -102.01575z" fill-rule="evenodd"/><path fill="#ff0000" d="m175.5193 543.5521l11.86969 13.924316l-13.92482 11.86908l-11.86969 -13.924316l13.92482 -11.86908zm-32.983734 -38.693146l11.869675 13.924286l-13.92482 11.86908l-11.869675 -13.924255l13.92482 -11.86911zm-72.4125 24.848663l9.560684 -8.14917q17.34803 4.984314 31.819275 13.939941q14.481384 8.96759 24.313652 20.501831q12.214325 14.328552 18.201538 31.275452q5.198349 14.744873 6.6354065 29.677795l-9.513107 8.108643q-6.002121 -20.793945 -12.426285 -33.508484q-6.425934 -12.692566 -16.481209 -24.488403q-6.923134 -8.121521 -15.701118 -15.360107q-8.767845 -7.2266235 -17.94394 -12.668152q-6.0322037 -3.5839844 -18.464897 -9.329346z" fill-rule="nonzero"/><path fill="#000000" fill-opacity="0.0" d="m846.205 459.83478l102.5827 119.18109l-135.40155 116.566956l-102.5827 -119.18109z" fill-rule="evenodd"/><path fill="#ff0000" d="m795.4199 531.36865l13.866272 -11.937439l11.936096 13.867432l-13.866272 11.937439l-11.936096 -13.867432zm-38.53186 33.171997l13.866272 -11.937439l11.936096 13.867432l-13.866272 11.937439l-11.936096 -13.867432zm25.198608 72.29297l-8.195251 -9.521301q4.9000854 -17.372437 13.785278 -31.88739q8.897095 -14.525085 20.38324 -24.413513q14.26886 -12.283997 31.186035 -18.353577q14.719177 -5.2699585 29.644531 -6.779541l8.15448 9.473938q-20.7641 6.1030884 -33.44702 12.58905q-12.66095 6.48761 -24.407654 16.60028q-8.0876465 6.9627075 -15.283386 15.77594q-7.183899 8.80304 -12.580811 18.005676q-3.5545654 6.0496826 -9.239441 18.510437z" fill-rule="nonzero"/><path fill="#000000" fill-opacity="0.0" d="m759.84827 71.96754l78.20471 -24.409447l33.984253 108.8504l-78.20471 24.40944z" fill-rule="evenodd"/><path fill="#ff9900" d="m791.16534 119.059906l-3.268982 -10.470314l10.470581 -3.2681046l3.268982 10.470314l-10.470581 3.2681046zm9.09436 29.128952l-3.2736206 -10.4852295l10.470581 -3.268097l3.2736206 10.4852295l-10.470581 3.268097zm45.813293 3.3457794l-7.2041016 2.2485657q-8.38916 -6.8424835 -14.268677 -15.188522q-5.8841553 -8.360947 -8.598938 -17.056374q-3.3620605 -10.768616 -2.6815186 -21.538666q0.5991211 -9.353302 3.3186035 -17.944374l7.159363 -2.2345963q-1.5713501 12.897705 -1.0227661 21.418106q0.548584 8.520401 3.319275 17.394814q1.9092407 6.115143 5.045105 12.174774q3.150879 6.054962 6.9264526 11.227463q2.5 3.3936462 8.007202 9.49881z" fill-rule="nonzero"/><path fill="#000000" fill-opacity="0.0" d="m165.53761 181.35335l-77.57481 -26.362213l36.661415 -107.968506l77.5748 26.362202z" fill-rule="evenodd"/><path fill="#ff9900" d="m167.97546 124.84856l-3.5267487 10.386307l-10.385452 -3.5292816l3.5267487 -10.386314l10.385452 3.5292892zm9.811569 -28.895271l-3.5317688 10.401115l-10.385452 -3.5292816l3.5317688 -10.401115l10.385452 3.5292816zm-35.046127 -29.699486l7.1455383 2.4282684q2.7475586 10.472191 2.581543 20.680374q-0.17103577 10.222984 -3.099945 18.848656q-3.6272125 10.68222 -10.521744 18.983421q-5.9940796 7.204468 -13.252411 12.543594l-7.101166 -2.4131775q8.8676605 -9.495468 13.443756 -16.70324q4.576111 -7.2077713 7.5652924 -16.010986q2.059784 -6.066086 3.0956879 -12.810158q1.0211182 -6.7491074 1.0175476 -13.15332q-0.02079773 -4.215225 -0.87409973 -12.393433z" fill-rule="nonzero"/></g></svg>