<svg version="1.1" viewBox="0.0 0.0 960.0 720.0" fill="none" stroke="none" stroke-linecap="square" stroke-miterlimit="10" xmlns:xlink="http://www.w3.org/1999/xlink" xmlns="http://www.w3.org/2000/svg"><clipPath id="g361f21cbba5_0_20.0"><path d="m0 0l960.0 0l0 720.0l-960.0 0l0 -720.0z" clip-rule="nonzero"/></clipPath><g clip-path="url(#g361f21cbba5_0_20.0)"><defs><radialGradient id="g361f21cbba5_0_20.1" gradientUnits="userSpaceOnUse" gradientTransform="matrix(24.49489742783178 0.0 0.0 24.49489742783178 0.0 0.0)" spreadMethod="pad" cx="19.595917942265427" cy="14.696938456699069" fx="19.595917942265427" fy="14.696938456699069" r="24.494897842407227"><stop offset="0.0" stop-color="#e06666"/><stop offset="0.13" stop-color="#f6b26b"/><stop offset="0.27" stop-color="#ffd966"/><stop offset="0.42" stop-color="#93c47d"/><stop offset="0.59" stop-color="#76a5af"/><stop offset="0.77" stop-color="#6fa8dc"/><stop offset="0.93" stop-color="#674ea7"/><stop offset="1.0" stop-color="#8e7cc3"/></radialGradient></defs><path fill="url(#g361f21cbba5_0_20.1)" d="m0 0l960.0 0l0 720.0l-960.0 0z" fill-rule="evenodd"/><path fill="#000000" fill-opacity="0.0" d="m330.80304 412.9703l-173.35434 147.77951l-115.90552 -135.96848l173.35434 -147.77954z" fill-rule="evenodd"/><path fill="#00ff00" d="m259.51917 361.83884l11.869659 13.924316l-13.924103 11.869904l-11.86969 -13.924316l13.924133 -11.869904zm-32.98375 -38.693146l11.86969 13.924286l-13.924118 11.869904l-11.86969 -13.924286l13.924118 -11.869904zm30.740555 99.20346l-26.801834 22.847778q-9.060791 7.72406 -15.003052 10.387451q-7.9987946 3.5746765 -16.648071 2.6530457q-8.649261 -0.92163086 -16.96733 -5.8624268q-8.307922 -4.928894 -17.004929 -15.131348q-7.6428223 -8.965759 -10.953705 -17.35376q-4.037964 -10.252533 -3.160553 -19.459625q0.6442566 -6.975708 5.3627625 -14.591187q3.5438538 -5.669647 11.677155 -12.603058l27.58664 -23.516785l61.912918 72.62991zm-25.132202 0.21502686l-41.01175 -48.11081l-10.951416 9.335785q-6.1356506 5.2304688 -8.282623 8.251526q-2.8070068 3.9328003 -3.335083 8.058197q-0.52983093 4.1474 2.1397247 10.289764q2.6797028 6.154236 9.856247 14.573029q7.1765594 8.418793 12.504578 11.658386q5.3280334 3.239624 10.152374 3.4797668q4.8344727 0.25204468 9.6970215 -2.353241q3.677765 -1.9237976 12.643417 -9.566772l6.587509 -5.615631z" fill-rule="nonzero"/><path fill="#000000" fill-opacity="0.0" d="m762.20447 278.1206l141.25983 164.126l-135.40155 116.566925l-141.25983 -164.12598z" fill-rule="evenodd"/><path fill="#00ff00" d="m711.4189 349.6549l13.866272 -11.937439l11.93573 13.867767l-13.866272 11.937408l-11.93573 -13.867737zm-38.53186 33.171997l13.866272 -11.937439l11.93573 13.867767l-13.866272 11.937439l-11.93573 -13.867767zm99.048035 -31.220123l22.974426 26.69336q7.7668457 9.024139 10.458496 14.953918q3.612793 7.982025 2.732666 16.636261q-0.8800659 8.654205 -5.7805786 16.996552q-4.888672 8.332153 -15.048584 17.078796q-8.928406 7.686432 -17.299866 11.037903q-10.2323 4.0875854 -19.442871 3.2544556q-6.9782715 -0.61068726 -14.615723 -5.2927856q-5.686157 -3.5167542 -12.65802 -11.617157l-23.647156 -27.474976l72.32721 -62.266327zm0.33551025 25.13266l-47.91028 41.24582l9.387512 10.9071045q5.2594604 6.1108093 8.290588 8.243347q3.9459229 2.7882385 8.073486 3.2964783q4.149658 0.5098877 10.278687 -2.1894226q6.14093 -2.7094727 14.524597 -9.927002q8.383728 -7.217499 11.597534 -12.561432q3.213745 -5.3439636 3.4307861 -10.169739q0.2288208 -4.835968 -2.3995361 -9.686249q-1.9412842 -3.6687012 -9.626648 -12.5980835l-5.6467285 -6.5608215z" fill-rule="nonzero"/><path fill="#000000" fill-opacity="0.0" d="m625.56116 151.96767l177.7008 -55.46457l33.984253 108.8504l-177.7008 55.464554z" fill-rule="evenodd"/><path fill="#ffd966" d="m697.54095 211.49376l-42.55243 -4.5927124l-2.8171997 -9.02356l32.40094 -27.921936l3.3201294 10.634384l-23.011719 18.149338l29.368042 2.2095947l3.2922363 10.544891zm3.8739014 -10.29361l9.76062 -4.3887177q1.6879883 3.7289124 4.4485474 5.126114q2.770874 1.3776245 5.798706 0.4325714q3.2366333 -1.0102234 4.690674 -4.164856q1.4540405 -3.1546326 0.15020752 -7.330826q-1.2340088 -3.9524689 -4.088684 -5.5985565q-2.8397827 -1.6507568 -5.8974 -0.6963959q-2.0136108 0.628479 -4.5755005 2.2792816l-1.5001831 -8.894485q4.2834473 -1.2223969 5.9107056 -3.8745728q1.6273193 -2.652176 0.6121826 -5.9036407q-0.86151123 -2.7592773 -3.0144043 -3.8878174q-2.152893 -1.1285553 -4.8824463 -0.27661133q-2.6847534 0.8379822 -4.011841 3.2982483q-1.3121338 2.4556122 -0.59729004 6.160904l-10.177368 1.3760681q-0.5317383 -5.268341 0.57006836 -8.869568q1.1018066 -3.6012115 4.214966 -6.422531q3.1084595 -2.8362274 7.612915 -4.2421722q7.7261353 -2.4115143 13.916443 1.0579376q5.1054077 2.825943 6.6886597 7.8970337q2.2445068 7.189026 -4.289673 13.942596q5.010315 -0.46714783 8.923645 2.1579895q3.913269 2.6251526 5.463928 7.5918274q2.2445068 7.189026 -1.4327393 13.918396q-3.6669312 6.7098083 -11.497498 9.1539q-7.4278564 2.3184052 -13.651855 -0.4202881q-6.213806 -2.7582703 -9.145386 -9.421829z" fill-rule="nonzero"/><path fill="#000000" fill-opacity="0.0" d="m299.82452 261.3543l-145.85826 -49.543304l36.661423 -107.9685l145.85828 49.543312z" fill-rule="evenodd"/><path fill="#ffd966" d="m276.72928 170.849l31.678558 28.78009l-3.0394287 8.951172l-42.630554 3.473709l3.5820312 -10.549057l29.286499 -1.1085052l-22.428955 -19.087112l3.5518494 -10.460297zm-9.194397 6.035446l-10.472412 -2.20401q0.8327637 -4.0075836 -0.5748291 -6.7629395q-1.4273834 -2.745575 -4.430725 -3.7657166q-3.2104797 -1.0904999 -6.2438507 0.6019592q-3.0333557 1.6924591 -4.440033 5.835144q-1.3313293 3.920761 0.005645752 6.932663q1.3221588 3.0068665 4.3551025 4.0370483q1.9972992 0.678421 5.039963 0.8538208l-4.0276337 8.070953q-4.181366 -1.5357819 -7.0587006 -0.35139465q-2.8773499 1.1843872 -3.9725494 4.409775q-0.92941284 2.7371368 0.14538574 4.917404q1.0748138 2.1802673 3.7822723 3.0998993q2.6630554 0.9045563 5.184784 -0.30162048q2.5069275 -1.2111969 4.1121063 -4.6263885l9.034409 4.883896q-2.6739502 4.5703278 -5.685791 6.8311462q-3.0118408 2.2608337 -7.1894836 2.7065277q-4.1826477 0.46047974 -8.650681 -1.0571594q-7.663727 -2.603119 -10.621841 -9.053482q-2.460617 -5.29126 -0.7525177 -10.321671q2.4214935 -7.1313477 11.680038 -8.739029q-4.3237762 -2.5742645 -5.939392 -7.000946q-1.6156158 -4.426697 0.05732727 -9.353531q2.4214935 -7.1313477 9.357193 -10.402618q6.9158936 -3.2614899 14.6831665 -0.62319946q7.3678284 2.5026093 10.783722 8.38237q3.3960571 5.8895416 1.839325 13.001099z" fill-rule="nonzero"/><path fill="#000000" fill-opacity="0.0" d="m205.32233 688.0951l-153.98425 31.905518l-52.62992 -254.07874l153.98424 -31.905487z" fill-rule="evenodd"/><path fill="#0000ff" d="m153.1743 572.53766l5.5684357 26.882446l-26.882141 5.5699463l-5.5684357 -26.882446l26.882141 -5.5699463zm-15.469299 -74.6803l5.565277 26.867126l-26.882141 5.5700073l-5.5652695 -26.867157l26.882133 -5.569977zm-61.13188 -30.32132q-4.413292 18.674438 -5.7743454 28.434814q-1.3795166 9.748291 -1.6926193 22.179718q-0.3284073 12.434631 0.54948425 23.374695q0.862587 10.943237 3.1793365 22.127686q4.715904 22.766663 13.80542 42.074097q9.089523 19.307373 28.188972 45.572266l-18.268227 3.7852173q-18.687447 -17.574036 -31.446999 -38.961304q-12.759563 -21.387268 -17.671959 -45.1026q-4.1422577 -19.997375 -2.5703926 -44.146667q1.8639832 -27.129974 13.142399 -55.492523l18.55893 -3.845398z" fill-rule="nonzero"/><path fill="#000000" fill-opacity="0.0" d="m812.5052 395.66034l148.78741 50.92914l-84.031494 245.48035l-148.78741 -50.92914z" fill-rule="evenodd"/><path fill="#0000ff" d="m798.56824 521.6722l8.891113 -25.97351l25.973633 8.890625l-8.891052 25.97351l-25.973694 -8.890625zm-24.699768 72.15515l8.886047 -25.95874l25.973694 8.890625l-8.886047 25.95874l-25.973694 -8.890625zm37.183716 57.219177q13.304565 -13.827087 19.444458 -21.5354q6.149536 -7.6884155 12.74707 -18.229248q6.6123047 -10.535767 11.425537 -20.39917q4.828003 -9.858398 8.5271 -20.664673q7.529907 -21.996887 9.534302 -43.242737q2.0044556 -21.24582 -1.0653687 -53.57602l17.650818 6.0417786q7.13916 24.639893 7.2349243 49.54425q0.09576416 24.904419 -7.747864 47.81781q-6.6138916 19.321228 -20.259644 39.30725q-15.414429 22.402893 -39.55957 41.074097l-17.931763 -6.1379395z" fill-rule="nonzero"/><path fill="#000000" fill-opacity="0.0" d="m537.7437 77.397575l104.8819 -77.291336l67.6535 91.779526l-104.881836 77.29134z" fill-rule="evenodd"/><path fill="#cc0000" d="m625.2153 110.16245l-41.72101 9.550636l-5.609009 -7.6092377l21.51007 -36.96907l6.6102905 8.96759l-15.825806 24.666939l28.480835 -7.4989777l6.5546265 8.89212zm0.3010254 -10.994072l7.793091 -7.3346024q2.8129883 2.973465 5.87854 3.3928528q3.0688477 0.39754486 5.6222534 -1.4841614q2.7295532 -2.0114822 3.0739746 -5.467888q0.34448242 -3.4564056 -2.2514038 -6.9780426q-2.4568481 -3.3329697 -5.692566 -3.9569092q-3.2232056 -0.6332016 -5.801758 1.2670441q-1.6981201 1.2513885 -3.5807495 3.6480713l-4.3219604 -7.9172134q3.6497803 -2.553772 4.3220215 -5.59182q0.6722412 -3.0380478 -1.3488159 -5.779888q-1.7151489 -2.3267937 -4.1186523 -2.6906471q-2.4034424 -0.36385345 -4.705261 1.3324661q-2.2640991 1.6685104 -2.715271 4.42717q-0.43859863 2.749382 1.4468384 6.0182037l-9.170593 4.6231384q-2.2227173 -4.805977 -2.3569946 -8.569504q-0.13427734 -3.763527 1.8872681 -7.446518q2.012207 -3.695568 5.810913 -6.494961q6.515625 -4.801605 13.499512 -3.5431938q5.748474 1.0043259 8.900635 5.2805977q4.468628 6.062237 0.49731445 14.578793q4.583374 -2.0772247 9.139404 -0.87350464q4.5560303 1.2037201 7.6433105 5.3919525q4.468628 6.0622406 3.1898804 13.623222q-1.2753906 7.539131 -7.8790894 12.405624q-6.264038 4.6162186 -13.041321 4.059517q-6.773926 -0.5785446 -11.72052 -5.9198z" fill-rule="nonzero"/><path fill="#000000" fill-opacity="0.0" d="m355.1636 163.97015l-104.598434 -73.73229l65.6693 -93.196846l104.59842 73.732285z" fill-rule="evenodd"/><path fill="#cc0000" d="m358.58743 70.62364l22.252716 36.56169l-5.4450073 7.727455l-41.87271 -8.717308l6.416992 -9.106903l28.404755 7.2144775l-16.119751 -24.649147l6.3630066 -9.030266zm-10.524841 3.190796l-9.422272 -5.074257q1.9313354 -3.608963 1.3598633 -6.649925q-0.5932617 -3.0371933 -3.1857605 -4.8646736q-2.7713013 -1.9535141 -6.1591797 -1.1873779q-3.3878784 0.76613235 -5.907898 4.342476q-2.3849792 3.3847542 -1.9537354 6.6518517q0.41848755 3.2581024 3.0365295 5.1035843q1.7240906 1.2153244 4.5930176 2.2435913l-6.1441345 6.603775q-3.5767212 -2.6550827 -6.671356 -2.332222q-3.0946655 0.32286072 -5.0566406 3.1072998q-1.6650085 2.362938 -1.2502136 4.758194q0.41482544 2.3952484 2.7519226 4.0426865q2.298767 1.6204224 5.058441 1.1761475q2.7469177 -0.45328522 5.2517395 -3.2756577l7.2855835 7.238533q-3.8564148 3.628357 -7.3842773 4.945793q-3.527832 1.3174362 -7.6609497 0.56417084q-4.1421204 -0.7404938 -7.9989624 -3.4592133q-6.615387 -4.6632233 -7.6299133 -11.686943q-0.8649292 -5.771225 2.1950684 -10.11393q4.3380127 -6.156418 13.673096 -5.0816956q-3.4198608 -3.691513 -3.7185974 -8.394535q-0.29870605 -4.703022 2.6983032 -8.956314q4.337982 -6.1564217 11.915131 -7.3340607q7.5553894 -1.1738663 14.260162 3.5523758q6.359955 4.483181 7.974823 11.088936q1.5931091 6.609524 -1.90979 12.99139z" fill-rule="nonzero"/></g></svg>