<svg version="1.1" viewBox="0.0 0.0 960.0 720.0" fill="none" stroke="none" stroke-linecap="square" stroke-miterlimit="10" xmlns:xlink="http://www.w3.org/1999/xlink" xmlns="http://www.w3.org/2000/svg"><clipPath id="g361f21cbba5_0_4.0"><path d="m0 0l960.0 0l0 720.0l-960.0 0l0 -720.0z" clip-rule="nonzero"/></clipPath><g clip-path="url(#g361f21cbba5_0_4.0)"><defs><radialGradient id="g361f21cbba5_0_4.1" gradientUnits="userSpaceOnUse" gradientTransform="matrix(24.49489742783178 0.0 0.0 24.49489742783178 0.0 0.0)" spreadMethod="pad" cx="19.595917942265427" cy="14.696938456699069" fx="19.595917942265427" fy="14.696938456699069" r="24.494897842407227"><stop offset="0.0" stop-color="#93c47d"/><stop offset="0.36" stop-color="#fff2cc"/><stop offset="1.0" stop-color="#f4cccc"/></radialGradient></defs><path fill="url(#g361f21cbba5_0_4.1)" d="m0 0l960.0 0l0 720.0l-960.0 0z" fill-rule="evenodd"/><path fill="#000000" fill-opacity="0.0" d="m330.804 412.97064l-119.68503 102.01575l-115.90552 -135.9685l119.68504 -102.01575z" fill-rule="evenodd"/><path fill="#6aa84f" d="m259.5193 361.83823l11.86969 13.924316l-13.924805 11.869049l-11.86969 -13.924286l13.924805 -11.86908zm-32.98372 -38.693146l11.869675 13.924286l-13.92482 11.86908l-11.869675 -13.924286l13.92482 -11.86908zm-45.454712 1.870697q3.4067688 12.330109 5.732193 18.47821q2.3254242 6.148102 6.1288147 13.500122q3.801651 7.374054 7.815216 13.47934q4.0118256 6.1273193 8.948227 11.918213q10.055283 11.795807 21.558838 20.16037q11.501785 8.386597 31.083878 17.605408l-9.465546 8.068115q-16.561874 -4.278839 -30.876999 -12.690063q-14.315109 -8.411255 -24.78598 -20.69461q-8.828781 -10.356995 -15.654465 -24.987762q-7.5901794 -16.44281 -10.104309 -36.63742l9.620132 -8.199921z" fill-rule="nonzero"/><path fill="#000000" fill-opacity="0.0" d="m762.205 278.12085l102.5827 119.18112l-135.40155 116.566925l-102.5827 -119.18109z" fill-rule="evenodd"/><path fill="#6aa84f" d="m711.4199 349.65475l13.866272 -11.937439l11.936096 13.867401l-13.866272 11.937439l-11.936096 -13.867401zm-38.53186 33.171997l13.866272 -11.937439l11.936096 13.867432l-13.866272 11.937439l-11.936096 -13.867432zm2.0908813 45.44629q12.31311 -3.4666748 18.449707 -5.8219604q6.1366577 -2.3552856 13.469971 -6.1944275q7.3553467 -3.837494 13.440918 -7.8807373q6.107666 -4.041626 11.87439 -9.006226q11.746704 -10.112671 20.055176 -21.656982q8.330566 -11.542664 17.454102 -31.16977l8.1137085 9.426544q-4.1984253 16.582886 -12.539978 30.939026q-8.341553 14.35614 -20.57373 24.88678q-10.313843 8.87915 -24.91095 15.77597q-16.405457 7.6700745 -36.587097 10.282257l-8.246216 -9.580475z" fill-rule="nonzero"/><path fill="#000000" fill-opacity="0.0" d="m625.56213 151.96754l78.20471 -24.409454l33.984253 108.8504l-78.20471 24.40944z" fill-rule="evenodd"/><path fill="#ff9900" d="m656.8792 199.0599l-3.268921 -10.470322l10.470581 -3.268097l3.268921 10.470322l-10.470581 3.268097zm9.094421 29.128952l-3.2736206 -10.4852295l10.470581 -3.268097l3.2736206 10.4852295l-10.470581 3.268097zm29.510803 8.434158l-22.3797 -71.6814l8.322815 -2.5977173l22.379639 71.68138l-8.322754 2.5977325z" fill-rule="nonzero"/><path fill="#000000" fill-opacity="0.0" d="m299.8237 261.35333l-77.574814 -26.362198l36.661423 -107.968506l77.5748 26.362213z" fill-rule="evenodd"/><path fill="#ff9900" d="m302.26154 204.84856l-3.5267334 10.386307l-10.385437 -3.5292816l3.5267334 -10.386307l10.385437 3.5292816zm9.811584 -28.895264l-3.5317688 10.401108l-10.385437 -3.5292816l3.5317688 -10.401108l10.385437 3.5292816zm-18.87619 -24.204468l-24.144623 71.10632l-8.255096 -2.8053284l24.144623 -71.10632l8.255096 2.8053284z" fill-rule="nonzero"/></g></svg>