<svg version="1.1" viewBox="0.0 0.0 960.0 720.0" fill="none" stroke="none" stroke-linecap="square" stroke-miterlimit="10" xmlns:xlink="http://www.w3.org/1999/xlink" xmlns="http://www.w3.org/2000/svg"><clipPath id="g361f21cbba5_0_11.0"><path d="m0 0l960.0 0l0 720.0l-960.0 0l0 -720.0z" clip-rule="nonzero"/></clipPath><g clip-path="url(#g361f21cbba5_0_11.0)"><defs><radialGradient id="g361f21cbba5_0_11.1" gradientUnits="userSpaceOnUse" gradientTransform="matrix(24.49489742783178 0.0 0.0 24.49489742783178 0.0 0.0)" spreadMethod="pad" cx="19.595917942265427" cy="14.696938456699069" fx="19.595917942265427" fy="14.696938456699069" r="24.494897842407227"><stop offset="0.0" stop-color="#93c47d"/><stop offset="0.33" stop-color="#b6d7a8"/><stop offset="1.0" stop-color="#f3f3f3"/></radialGradient></defs><path fill="url(#g361f21cbba5_0_11.1)" d="m0 0l960.0 0l0 720.0l-960.0 0z" fill-rule="evenodd"/><path fill="#000000" fill-opacity="0.0" d="m330.804 412.97064l-119.68503 102.01575l-115.90552 -135.9685l119.68504 -102.01575z" fill-rule="evenodd"/><path fill="#6aa84f" d="m259.5193 361.83823l11.86969 13.924316l-13.924805 11.869049l-11.86969 -13.924286l13.924805 -11.86908zm-32.98372 -38.693146l11.869675 13.924286l-13.92482 11.86908l-11.869675 -13.924286l13.92482 -11.86908zm-45.454712 1.870697q3.4067688 12.330109 5.732193 18.47821q2.3254242 6.148102 6.1288147 13.500122q3.801651 7.374054 7.815216 13.47934q4.0118256 6.1273193 8.948227 11.918213q10.055283 11.795807 21.558838 20.16037q11.501785 8.386597 31.083878 17.605408l-9.465546 8.068115q-16.561874 -4.278839 -30.876999 -12.690063q-14.315109 -8.411255 -24.78598 -20.69461q-8.828781 -10.356995 -15.654465 -24.987762q-7.5901794 -16.44281 -10.104309 -36.63742l9.620132 -8.199921z" fill-rule="nonzero"/><path fill="#000000" fill-opacity="0.0" d="m762.205 278.12085l102.5827 119.18112l-135.40155 116.566925l-102.5827 -119.18109z" fill-rule="evenodd"/><path fill="#6aa84f" d="m711.4199 349.65475l13.866272 -11.937439l11.936096 13.867401l-13.866272 11.937439l-11.936096 -13.867401zm-38.53186 33.171997l13.866272 -11.937439l11.936096 13.867432l-13.866272 11.937439l-11.936096 -13.867432zm2.0908813 45.44629q12.31311 -3.4666748 18.449707 -5.8219604q6.1366577 -2.3552856 13.469971 -6.1944275q7.3553467 -3.837494 13.440918 -7.8807373q6.107666 -4.041626 11.87439 -9.006226q11.746704 -10.112671 20.055176 -21.656982q8.330566 -11.542664 17.454102 -31.16977l8.1137085 9.426544q-4.1984253 16.582886 -12.539978 30.939026q-8.341553 14.35614 -20.57373 24.88678q-10.313843 8.87915 -24.91095 15.77597q-16.405457 7.6700745 -36.587097 10.282257l-8.246216 -9.580475z" fill-rule="nonzero"/><path fill="#000000" fill-opacity="0.0" d="m625.56213 151.96754l78.20471 -24.409454l33.984253 108.8504l-78.20471 24.40944z" fill-rule="evenodd"/><path fill="#6aa84f" d="m656.8792 199.0599l-3.268921 -10.470322l10.470581 -3.268097l3.268921 10.470322l-10.470581 3.268097zm9.094421 29.128952l-3.2736206 -10.4852295l10.470581 -3.268097l3.2736206 10.4852295l-10.470581 3.268097zm25.528442 9.677155q1.0152588 -7.6008453 1.1748047 -11.54631q0.16418457 -3.9305725 -0.20544434 -8.889404q-0.35943604 -4.9783936 -1.131897 -9.287704q-0.77716064 -4.3242188 -2.1415405 -8.694305q-2.770691 -8.874405 -7.152527 -16.19838q-4.3669434 -7.3286133 -12.997681 -17.042007l7.114624 -2.220642q8.1432495 6.264511 14.053589 14.289917q5.9205933 8.005844 8.807678 17.253128q2.4307861 7.785614 2.7543945 17.472916q0.3307495 10.863602 -3.0420532 22.604904l-7.2339478 2.2578888z" fill-rule="nonzero"/><path fill="#000000" fill-opacity="0.0" d="m299.8237 261.35333l-77.574814 -26.362198l36.661423 -107.968506l77.5748 26.362213z" fill-rule="evenodd"/><path fill="#6aa84f" d="m302.26154 204.84856l-3.5267334 10.386307l-10.385437 -3.5292816l3.5267334 -10.386307l10.385437 3.5292816zm9.811584 -28.895264l-3.5317688 10.401108l-10.385437 -3.5292816l3.5317688 -10.401108l10.385437 3.5292816zm-14.926147 -22.862137q-5.298004 5.5432434 -7.75119 8.637192q-2.4481506 3.0791473 -5.070709 7.303726q-2.642395 4.2343445 -4.556793 8.171478q-1.9194641 3.9519348 -3.391449 8.286957q-2.9891968 8.803223 -3.763214 17.303055q-0.78881836 8.494812 0.462677 21.429062l-7.0567627 -2.398117q-2.8893433 -9.86026 -2.9371338 -19.827545q-0.067596436 -9.957535 3.0471802 -19.13063q2.6224365 -7.72316 8.067749 -15.741226q6.132477 -8.972733 15.774506 -16.472275l7.1751404 2.438324z" fill-rule="nonzero"/><path fill="#000000" fill-opacity="0.0" d="m205.32233 688.0951l-153.98425 31.905518l-52.62992 -254.07874l153.98424 -31.905487z" fill-rule="evenodd"/><path fill="#6aa84f" d="m153.1743 572.53766l5.5684357 26.882446l-26.882141 5.5699463l-5.5684357 -26.882446l26.882141 -5.5699463zm-15.469299 -74.6803l5.565277 26.867126l-26.882141 5.5700073l-5.5652695 -26.867157l26.882133 -5.569977zm-61.13188 -30.32132q-4.413292 18.674438 -5.7743454 28.434814q-1.3795166 9.748291 -1.6926193 22.179718q-0.3284073 12.434631 0.54948425 23.374695q0.862587 10.943237 3.1793365 22.127686q4.715904 22.766663 13.80542 42.074097q9.089523 19.307373 28.188972 45.572266l-18.268227 3.7852173q-18.687447 -17.574036 -31.446999 -38.961304q-12.759563 -21.387268 -17.671959 -45.1026q-4.1422577 -19.997375 -2.5703926 -44.146667q1.8639832 -27.129974 13.142399 -55.492523l18.55893 -3.845398z" fill-rule="nonzero"/><path fill="#000000" fill-opacity="0.0" d="m812.5052 395.66034l148.78741 50.92914l-84.031494 245.48035l-148.78741 -50.92914z" fill-rule="evenodd"/><path fill="#6aa84f" d="m798.56824 521.6722l8.891113 -25.97351l25.973633 8.890625l-8.891052 25.97351l-25.973694 -8.890625zm-24.699768 72.15515l8.886047 -25.95874l25.973694 8.890625l-8.886047 25.95874l-25.973694 -8.890625zm37.183716 57.219177q13.304565 -13.827087 19.444458 -21.5354q6.149536 -7.6884155 12.74707 -18.229248q6.6123047 -10.535767 11.425537 -20.39917q4.828003 -9.858398 8.5271 -20.664673q7.529907 -21.996887 9.534302 -43.242737q2.0044556 -21.24582 -1.0653687 -53.57602l17.650818 6.0417786q7.13916 24.639893 7.2349243 49.54425q0.09576416 24.904419 -7.747864 47.81781q-6.6138916 19.321228 -20.259644 39.30725q-15.414429 22.402893 -39.55957 41.074097l-17.931763 -6.1379395z" fill-rule="nonzero"/></g></svg>