<svg version="1.1" viewBox="0.0 0.0 339.0 63.0" fill="none" stroke="none" stroke-linecap="square" stroke-miterlimit="10" xmlns:xlink="http://www.w3.org/1999/xlink" xmlns="http://www.w3.org/2000/svg"><clipPath id="g361d7d53ffd_1_3.0"><path d="m0 0l339.0 0l0 63.0l-339.0 0l0 -63.0z" clip-rule="nonzero"/></clipPath><g clip-path="url(#g361d7d53ffd_1_3.0)"><path fill="#000000" fill-opacity="0.0" d="m0 0l339.0 0l0 63.0l-339.0 0z" fill-rule="evenodd"/><path fill="#5e4646" fill-opacity="0.2" d="m13.391076 11.469902l0 0c0 -4.957616 4.018941 -8.976558 8.976558 -8.976558l294.26733 0c2.3807373 0 4.663971 0.9457419 6.3473816 2.6291728c1.6834412 1.6834311 2.629181 3.9666533 2.629181 6.347385l0 35.90515c0 4.9576187 -4.018921 8.976559 -8.9765625 8.976559l-294.26733 0c-4.957617 0 -8.976558 -4.01894 -8.976558 -8.976559z" fill-rule="evenodd"/><path stroke="#5e4646" stroke-width="4.0" stroke-linejoin="round" stroke-linecap="butt" d="m13.391076 11.469902l0 0c0 -4.957616 4.018941 -8.976558 8.976558 -8.976558l294.26733 0c2.3807373 0 4.663971 0.9457419 6.3473816 2.6291728c1.6834412 1.6834311 2.629181 3.9666533 2.629181 6.347385l0 35.90515c0 4.9576187 -4.018921 8.976559 -8.9765625 8.976559l-294.26733 0c-4.957617 0 -8.976558 -4.01894 -8.976558 -8.976559z" fill-rule="evenodd"/></g></svg>