<svg version="1.1" viewBox="0.0 0.0 335.0 227.0" fill="none" stroke="none" stroke-linecap="square" stroke-miterlimit="10" xmlns:xlink="http://www.w3.org/1999/xlink" xmlns="http://www.w3.org/2000/svg"><clipPath id="g361d7d53ffd_0_27.0"><path d="m0 0l335.0 0l0 227.0l-335.0 0l0 -227.0z" clip-rule="nonzero"/></clipPath><g clip-path="url(#g361d7d53ffd_0_27.0)"><path fill="#000000" fill-opacity="0.0" d="m0 0l335.0 0l0 227.0l-335.0 0z" fill-rule="evenodd"/><path fill="#b6d7a8" d="m19.28084 113.5l0 0c0 -55.463306 66.360565 -100.42519 148.22047 -100.42519l0 0c81.85991 0 148.22046 44.96189 148.22046 100.42519l0 0c0 55.463303 -66.36055 100.4252 -148.22046 100.4252l0 0c-81.85991 0 -148.22047 -44.9619 -148.22047 -100.4252z" fill-rule="evenodd"/><path stroke="#93c47d" stroke-width="24.0" stroke-linejoin="round" stroke-linecap="butt" d="m19.28084 113.5l0 0c0 -55.463306 66.360565 -100.42519 148.22047 -100.42519l0 0c81.85991 0 148.22046 44.96189 148.22046 100.42519l0 0c0 55.463303 -66.36055 100.4252 -148.22046 100.4252l0 0c-81.85991 0 -148.22047 -44.9619 -148.22047 -100.4252z" fill-rule="evenodd"/></g></svg>